<svg width="196" height="196" viewBox="0 0 196 196" fill="none" xmlns="http://www.w3.org/2000/svg">
<g clip-path="url(#clip0_3_15)">
<rect width="196" height="196" fill="#111318"/>
<g filter="url(#filter0_d_3_15)">
<path d="M76.2698 109.735C73.8315 109.735 71.3933 109.356 68.9551 108.599C66.6009 107.758 64.0786 106.665 61.3882 105.319C59.2022 104.225 57.2264 103.258 55.4608 102.416C53.6951 101.575 51.9295 101.155 50.1639 101.155C47.9779 101.155 46.2543 101.912 44.9932 103.426C43.732 104.94 42.555 107.043 41.462 109.735L29.8594 105.445C31.1205 100.229 33.3486 95.9811 36.5435 92.7003C39.8225 89.4195 43.9002 87.7792 48.7767 87.7792C51.2149 87.7792 53.6111 88.1998 55.9652 89.041C58.4034 89.7981 60.9678 90.8496 63.6582 92.1956C65.8442 93.2892 67.82 94.2566 69.5857 95.0978C71.3513 95.939 73.1169 96.3596 74.8825 96.3596C77.0685 96.3596 78.7921 95.6025 80.0532 94.0883C81.3144 92.5741 82.4914 90.4711 83.5844 87.7792L95.187 92.0694C93.9259 97.285 91.6558 101.533 88.3768 104.814C85.1819 108.095 81.1462 109.735 76.2698 109.735Z" fill="#C0CAF5"/>
<path d="M110.145 154.656L151.637 41.3438H166.141L124.649 154.656H110.145Z" fill="#C0CAF5"/>
</g>
</g>
<defs>
<filter id="filter0_d_3_15" x="28.3281" y="39.8125" width="139.344" height="116.375" filterUnits="userSpaceOnUse" color-interpolation-filters="sRGB">
<feFlood flood-opacity="0" result="BackgroundImageFix"/>
<feColorMatrix in="SourceAlpha" type="matrix" values="0 0 0 0 0 0 0 0 0 0 0 0 0 0 0 0 0 0 127 0" result="hardAlpha"/>
<feOffset/>
<feGaussianBlur stdDeviation="0.765625"/>
<feComposite in2="hardAlpha" operator="out"/>
<feColorMatrix type="matrix" values="0 0 0 0 0.14902 0 0 0 0 0.435294 0 0 0 0 0.305882 0 0 0 0.5 0"/>
<feBlend mode="normal" in2="BackgroundImageFix" result="effect1_dropShadow_3_15"/>
<feBlend mode="normal" in="SourceGraphic" in2="effect1_dropShadow_3_15" result="shape"/>
</filter>
<clipPath id="clip0_3_15">
<rect width="196" height="196" fill="white"/>
</clipPath>
</defs>
</svg>
