<svg width="196" height="196" viewBox="0 0 196 196" fill="none" xmlns="http://www.w3.org/2000/svg">
<g clip-path="url(#clip0_3_15)">
<g clip-path="url(#clip1_3_15)">
<g filter="url(#filter0_dddddd_3_15)">
<circle cx="98" cy="98" r="81.1562" fill="#111318"/>
<circle cx="98" cy="98" r="80.9648" stroke="#C0CAF5" stroke-width="0.382812"/>
</g>
<g filter="url(#filter1_d_3_15)">
<path d="M57.1849 98.1027C56.4254 98.1027 55.7027 97.9925 55.0167 97.772C54.3307 97.527 53.6692 97.2452 53.0322 96.9267C52.3952 96.6082 51.7459 96.302 51.0844 96.008C50.4474 95.714 49.8227 95.567 49.2102 95.567C48.4997 95.567 47.9239 95.812 47.4829 96.302C47.0419 96.7675 46.6622 97.3677 46.3437 98.1027L44.1019 97.184C44.4449 96.008 45.0452 95.0402 45.9027 94.2807C46.7602 93.4967 47.8749 93.1047 49.2469 93.1047C50.0064 93.1047 50.7292 93.2272 51.4152 93.4722C52.1012 93.6927 52.7627 93.9622 53.3997 94.2807C54.0367 94.5992 54.6737 94.9055 55.3107 95.1995C55.9722 95.4935 56.6092 95.6405 57.2217 95.6405C57.9322 95.6405 58.5079 95.4077 58.9489 94.9422C59.3899 94.4522 59.7697 93.8397 60.0882 93.1047L62.3299 94.0235C61.9869 95.1995 61.3867 96.1795 60.5292 96.9635C59.6717 97.723 58.5569 98.1027 57.1849 98.1027ZM67.5341 111.884L80.3231 78.8825H82.9691L70.1801 111.884H67.5341Z" fill="#C0CAF5"/>
</g>
<g filter="url(#filter2_d_3_15)">
<path d="M90.8965 104.313H97.5115V82.1165H90.8965V79.6175H100.452V104.313H107.067V106.812H90.8965V104.313ZM121.679 107.254C120.307 107.254 119.082 107.021 118.004 106.555C116.95 106.065 116.056 105.391 115.321 104.534C114.586 103.676 114.022 102.635 113.63 101.41C113.263 100.185 113.079 98.8255 113.079 97.331C113.079 95.8365 113.275 94.4767 113.667 93.2517C114.059 92.0267 114.623 90.9855 115.358 90.128C116.093 89.246 116.987 88.5722 118.04 88.1067C119.094 87.6413 120.294 87.4085 121.642 87.4085C123.479 87.4085 124.974 87.8127 126.125 88.6212C127.277 89.4297 128.122 90.4832 128.661 91.7817L126.309 93.0312C125.966 92.0512 125.39 91.2917 124.582 90.7527C123.798 90.2137 122.818 89.9442 121.642 89.9442C120.784 89.9442 120.013 90.0912 119.327 90.3852C118.665 90.6547 118.102 91.0467 117.636 91.5612C117.171 92.0757 116.815 92.6882 116.57 93.3987C116.35 94.1092 116.24 94.881 116.24 95.714V98.948C116.24 99.781 116.35 100.553 116.57 101.263C116.815 101.974 117.171 102.586 117.636 103.101C118.102 103.615 118.677 104.019 119.363 104.313C120.049 104.583 120.833 104.718 121.715 104.718C122.989 104.718 124.043 104.424 124.876 103.836C125.709 103.248 126.37 102.439 126.86 101.41L128.955 102.843C128.392 104.117 127.51 105.171 126.309 106.004C125.133 106.837 123.59 107.254 121.679 107.254Z" fill="#C0CAF5"/>
</g>
<g filter="url(#filter3_d_3_15)">
<path d="M135.945 113.023V110.304H153.585V113.023H135.945Z" fill="#C0CAF5"/>
</g>
</g>
</g>
<defs>
<filter id="filter0_dddddd_3_15" x="-13.7812" y="-15.3125" width="223.562" height="223.562" filterUnits="userSpaceOnUse" color-interpolation-filters="sRGB">
<feFlood flood-opacity="0" result="BackgroundImageFix"/>
<feColorMatrix in="SourceAlpha" type="matrix" values="0 0 0 0 0 0 0 0 0 0 0 0 0 0 0 0 0 0 127 0" result="hardAlpha"/>
<feOffset dy="-0.0423736"/>
<feGaussianBlur stdDeviation="0.423736"/>
<feColorMatrix type="matrix" values="0 0 0 0 0 0 0 0 0 0 0 0 0 0 0 0 0 0 0.07 0"/>
<feBlend mode="normal" in2="BackgroundImageFix" result="effect1_dropShadow_3_15"/>
<feColorMatrix in="SourceAlpha" type="matrix" values="0 0 0 0 0 0 0 0 0 0 0 0 0 0 0 0 0 0 127 0" result="hardAlpha"/>
<feOffset dy="-0.10183"/>
<feGaussianBlur stdDeviation="1.0183"/>
<feColorMatrix type="matrix" values="0 0 0 0 0 0 0 0 0 0 0 0 0 0 0 0 0 0 0.0503198 0"/>
<feBlend mode="normal" in2="effect1_dropShadow_3_15" result="effect2_dropShadow_3_15"/>
<feColorMatrix in="SourceAlpha" type="matrix" values="0 0 0 0 0 0 0 0 0 0 0 0 0 0 0 0 0 0 127 0" result="hardAlpha"/>
<feOffset dy="-0.191736"/>
<feGaussianBlur stdDeviation="1.91736"/>
<feColorMatrix type="matrix" values="0 0 0 0 0 0 0 0 0 0 0 0 0 0 0 0 0 0 0.0417275 0"/>
<feBlend mode="normal" in2="effect2_dropShadow_3_15" result="effect3_dropShadow_3_15"/>
<feColorMatrix in="SourceAlpha" type="matrix" values="0 0 0 0 0 0 0 0 0 0 0 0 0 0 0 0 0 0 127 0" result="hardAlpha"/>
<feOffset dy="-0.342025"/>
<feGaussianBlur stdDeviation="3.42025"/>
<feColorMatrix type="matrix" values="0 0 0 0 0 0 0 0 0 0 0 0 0 0 0 0 0 0 0.035 0"/>
<feBlend mode="normal" in2="effect3_dropShadow_3_15" result="effect4_dropShadow_3_15"/>
<feColorMatrix in="SourceAlpha" type="matrix" values="0 0 0 0 0 0 0 0 0 0 0 0 0 0 0 0 0 0 127 0" result="hardAlpha"/>
<feOffset dy="-0.63972"/>
<feGaussianBlur stdDeviation="6.3972"/>
<feColorMatrix type="matrix" values="0 0 0 0 0 0 0 0 0 0 0 0 0 0 0 0 0 0 0.0282725 0"/>
<feBlend mode="normal" in2="effect4_dropShadow_3_15" result="effect5_dropShadow_3_15"/>
<feColorMatrix in="SourceAlpha" type="matrix" values="0 0 0 0 0 0 0 0 0 0 0 0 0 0 0 0 0 0 127 0" result="hardAlpha"/>
<feOffset dy="-1.53125"/>
<feGaussianBlur stdDeviation="15.3125"/>
<feColorMatrix type="matrix" values="0 0 0 0 0 0 0 0 0 0 0 0 0 0 0 0 0 0 0.0196802 0"/>
<feBlend mode="normal" in2="effect5_dropShadow_3_15" result="effect6_dropShadow_3_15"/>
<feBlend mode="normal" in="SourceGraphic" in2="effect6_dropShadow_3_15" result="shape"/>
</filter>
<filter id="filter1_d_3_15" x="42.5707" y="77.3513" width="41.9296" height="36.064" filterUnits="userSpaceOnUse" color-interpolation-filters="sRGB">
<feFlood flood-opacity="0" result="BackgroundImageFix"/>
<feColorMatrix in="SourceAlpha" type="matrix" values="0 0 0 0 0 0 0 0 0 0 0 0 0 0 0 0 0 0 127 0" result="hardAlpha"/>
<feOffset/>
<feGaussianBlur stdDeviation="0.765625"/>
<feComposite in2="hardAlpha" operator="out"/>
<feColorMatrix type="matrix" values="0 0 0 0 0.14902 0 0 0 0 0.435294 0 0 0 0 0.305882 0 0 0 0.5 0"/>
<feBlend mode="normal" in2="BackgroundImageFix" result="effect1_dropShadow_3_15"/>
<feBlend mode="normal" in="SourceGraphic" in2="effect1_dropShadow_3_15" result="shape"/>
</filter>
<filter id="filter2_d_3_15" x="89.3653" y="78.0862" width="41.1212" height="30.6985" filterUnits="userSpaceOnUse" color-interpolation-filters="sRGB">
<feFlood flood-opacity="0" result="BackgroundImageFix"/>
<feColorMatrix in="SourceAlpha" type="matrix" values="0 0 0 0 0 0 0 0 0 0 0 0 0 0 0 0 0 0 127 0" result="hardAlpha"/>
<feOffset/>
<feGaussianBlur stdDeviation="0.765625"/>
<feComposite in2="hardAlpha" operator="out"/>
<feColorMatrix type="matrix" values="0 0 0 0 0.14902 0 0 0 0 0.435294 0 0 0 0 0.305882 0 0 0 0.5 0"/>
<feBlend mode="normal" in2="BackgroundImageFix" result="effect1_dropShadow_3_15"/>
<feBlend mode="normal" in="SourceGraphic" in2="effect1_dropShadow_3_15" result="shape"/>
</filter>
<filter id="filter3_d_3_15" x="134.414" y="108.773" width="20.7025" height="5.78198" filterUnits="userSpaceOnUse" color-interpolation-filters="sRGB">
<feFlood flood-opacity="0" result="BackgroundImageFix"/>
<feColorMatrix in="SourceAlpha" type="matrix" values="0 0 0 0 0 0 0 0 0 0 0 0 0 0 0 0 0 0 127 0" result="hardAlpha"/>
<feOffset/>
<feGaussianBlur stdDeviation="0.765625"/>
<feComposite in2="hardAlpha" operator="out"/>
<feColorMatrix type="matrix" values="0 0 0 0 0.14902 0 0 0 0 0.435294 0 0 0 0 0.305882 0 0 0 0.5 0"/>
<feBlend mode="normal" in2="BackgroundImageFix" result="effect1_dropShadow_3_15"/>
<feBlend mode="normal" in="SourceGraphic" in2="effect1_dropShadow_3_15" result="shape"/>
</filter>
<clipPath id="clip0_3_15">
<rect width="196" height="196" fill="white"/>
</clipPath>
<clipPath id="clip1_3_15">
<rect width="196" height="196" fill="white"/>
</clipPath>
</defs>
</svg>
